<svg width="30" height="30" viewBox="0 0 30 30" fill="none" xmlns="http://www.w3.org/2000/svg">
<g clip-path="url(#clip0_88_8)">
<path d="M28.0112 5.45434H26.5537V4.50234C26.5537 3.63497 25.848 2.92962 24.9813 2.92962H23.7194V1.73756C23.7194 0.870524 23.0141 0.164841 22.1467 0.164841H1.95522C1.08785 0.164841 0.3825 0.870524 0.3825 1.73756V25.986C0.3825 28.0899 2.09418 29.8016 4.19806 29.8016H26.3225C28.1208 29.8016 29.5839 27.9921 29.5839 25.768V7.02739C29.5839 6.16002 28.8782 5.45434 28.0112 5.45434ZM4.19806 29.143C2.45707 29.143 1.04109 27.7267 1.04109 25.986V1.73756C1.04109 1.23341 1.45107 0.823434 1.95522 0.823434H22.1467C22.6509 0.823434 23.0608 1.23341 23.0608 1.73756V25.768C23.0608 27.178 23.649 28.4218 24.5377 29.143H4.19806ZM28.9253 25.768C28.9253 27.6289 27.7576 29.143 26.3225 29.143C24.8875 29.143 23.7198 27.6289 23.7198 25.768V3.58821H24.9816C25.4855 3.58821 25.8954 3.99851 25.8954 4.50234V26.0077C25.8954 26.1898 26.0426 26.337 26.2247 26.337C26.4068 26.337 26.554 26.1898 26.554 26.0077V6.11293H28.0115C28.5153 6.11293 28.9253 6.52323 28.9253 7.02706V25.768Z" fill="#363636"/>
<path d="M11.9082 20.3023H4.10717C3.59545 20.3023 3.17921 19.8858 3.17921 19.3744V11.4821C3.17921 10.9704 3.59545 10.5542 4.10717 10.5542H11.9082C12.4199 10.5542 12.8362 10.9704 12.8362 11.4821V19.3744C12.8362 19.8861 12.4199 20.3023 11.9082 20.3023ZM4.10717 11.2127C3.95866 11.2127 3.83781 11.3336 3.83781 11.4821V19.3744C3.83781 19.5229 3.95866 19.6437 4.10717 19.6437H11.9082C12.0567 19.6437 12.1776 19.5229 12.1776 19.3744V11.4821C12.1776 11.3336 12.0567 11.2127 11.9082 11.2127H4.10717Z" fill="#363636"/>
<path d="M20.5009 11.2127H15.4268C15.245 11.2127 15.0975 11.0652 15.0975 10.8835C15.0975 10.7017 15.245 10.5542 15.4268 10.5542H20.5009C20.683 10.5542 20.8302 10.7017 20.8302 10.8835C20.8302 11.0652 20.683 11.2127 20.5009 11.2127Z" fill="#363636"/>
<path d="M20.5009 14.2426H15.4268C15.245 14.2426 15.0975 14.0951 15.0975 13.9133C15.0975 13.7315 15.245 13.584 15.4268 13.584H20.5009C20.683 13.584 20.8302 13.7315 20.8302 13.9133C20.8302 14.0951 20.683 14.2426 20.5009 14.2426Z" fill="#363636"/>
<path d="M20.5009 17.2725H15.4268C15.245 17.2725 15.0975 17.1253 15.0975 16.9432C15.0975 16.7611 15.245 16.6139 15.4268 16.6139H20.5009C20.683 16.6139 20.8302 16.7611 20.8302 16.9432C20.8302 17.1253 20.683 17.2725 20.5009 17.2725Z" fill="#363636"/>
<path d="M20.5009 20.3023H15.4268C15.245 20.3023 15.0975 20.1551 15.0975 19.973C15.0975 19.7909 15.245 19.6437 15.4268 19.6437H20.5009C20.683 19.6437 20.8302 19.7909 20.8302 19.973C20.8302 20.1551 20.683 20.3023 20.5009 20.3023Z" fill="#363636"/>
<path d="M20.5009 23.3322H3.50851C3.32674 23.3322 3.17921 23.185 3.17921 23.0029C3.17921 22.8208 3.32674 22.6736 3.50851 22.6736H20.5009C20.683 22.6736 20.8302 22.8208 20.8302 23.0029C20.8302 23.185 20.683 23.3322 20.5009 23.3322Z" fill="#363636"/>
<path d="M20.5009 26.3624H3.50851C3.32674 26.3624 3.17921 26.2152 3.17921 26.0331C3.17921 25.851 3.32674 25.7038 3.50851 25.7038H20.5009C20.683 25.7038 20.8302 25.851 20.8302 26.0331C20.8302 26.2152 20.683 26.3624 20.5009 26.3624Z" fill="#363636"/>
<path d="M6.5904 8.26686C6.48799 8.26686 6.38953 8.21911 6.32598 8.13383L3.83748 4.7829V7.93756C3.83748 8.11934 3.68996 8.26686 3.50818 8.26686C3.32641 8.26686 3.17889 8.11934 3.17889 7.93756V3.78711C3.17889 3.64518 3.26977 3.51906 3.40478 3.4746C3.53881 3.43048 3.68765 3.47691 3.77261 3.59085L6.26111 6.94177V3.78711C6.26111 3.60533 6.40863 3.45781 6.5904 3.45781C6.77217 3.45781 6.9197 3.60533 6.9197 3.78711V7.93756C6.9197 8.07949 6.82881 8.20561 6.6938 8.25007C6.65988 8.26126 6.62498 8.26686 6.5904 8.26686Z" fill="#363636"/>
<path d="M10.4863 6.19163C10.6681 6.19163 10.8156 6.04411 10.8156 5.86234C10.8156 5.68056 10.6681 5.53304 10.4863 5.53304H8.72227V4.1164H10.4863C10.6681 4.1164 10.8156 3.96888 10.8156 3.78711C10.8156 3.60533 10.6681 3.45781 10.4863 3.45781H8.39297C8.2112 3.45781 8.06367 3.60533 8.06367 3.78711V7.93756C8.06367 8.11934 8.2112 8.26686 8.39297 8.26686H10.4863C10.6681 8.26686 10.8156 8.11934 10.8156 7.93756C10.8156 7.75579 10.6681 7.60827 10.4863 7.60827H8.72227V6.19163H10.4863Z" fill="#363636"/>
<path d="M13.0012 8.26687C12.9962 8.26687 12.9913 8.26687 12.9863 8.26654C12.8388 8.25995 12.7137 8.15622 12.6804 8.01232L11.7126 3.86186C11.6715 3.6847 11.7811 3.50754 11.9586 3.46638C12.1348 3.42522 12.3126 3.53487 12.3541 3.71236L13.0558 6.72082L14.0572 3.68404C14.1017 3.54903 14.2278 3.45782 14.37 3.45782C14.5123 3.45782 14.6381 3.54903 14.6829 3.68404L15.6839 6.72049L16.3857 3.71236C16.4268 3.5352 16.6023 3.42489 16.7812 3.46638C16.958 3.50754 17.0683 3.6847 17.0268 3.86186L16.059 8.01232C16.0254 8.15622 15.9006 8.25995 15.7531 8.26654C15.596 8.2695 15.4719 8.18092 15.4254 8.04064L14.3704 4.83889L13.3146 8.04064C13.2689 8.17631 13.1427 8.26687 13.0012 8.26687Z" fill="#363636"/>
<path d="M19.4633 8.26686H17.9149C17.7328 8.26686 17.5856 8.11934 17.5856 7.93756C17.5856 7.75579 17.7328 7.60827 17.9149 7.60827H19.4633C19.8538 7.60827 20.1713 7.2905 20.1713 6.89995C20.1713 6.5094 19.8535 6.19163 19.4633 6.19163H18.9522C18.1988 6.19163 17.5856 5.57848 17.5856 4.82472C17.5856 4.07096 18.1991 3.45781 18.9525 3.45781H20.1485C20.3306 3.45781 20.4778 3.60533 20.4778 3.78711C20.4778 3.96888 20.3306 4.1164 20.1485 4.1164H18.9525C18.562 4.1164 18.2445 4.43417 18.2445 4.82472C18.2445 5.21527 18.5623 5.53304 18.9525 5.53304H19.4636C20.217 5.53304 20.8302 6.14619 20.8302 6.89995C20.8302 7.65371 20.217 8.26686 19.4633 8.26686Z" fill="#363636"/>
</g>
<defs>
<clipPath id="clip0_88_8">
<rect width="30" height="30" fill="white"/>
</clipPath>
</defs>
</svg>
