<svg width="54" height="54" viewBox="0 0 54 54" fill="none" xmlns="http://www.w3.org/2000/svg">
<g clip-path="url(#clip0_40_107)">
<path d="M27 15.9325C30.6046 15.9325 31.0316 15.9462 32.4551 16.0111C33.7713 16.0712 34.4862 16.2911 34.9619 16.476C35.592 16.7209 36.0418 17.0135 36.5142 17.4858C36.9865 17.9582 37.2791 18.408 37.524 19.0381C37.7089 19.5138 37.9288 20.2287 37.9888 21.5448C38.0538 22.9684 38.0675 23.3954 38.0675 27C38.0675 30.6047 38.0538 31.0316 37.9888 32.4552C37.9288 33.7714 37.7089 34.4862 37.524 34.962C37.2791 35.5921 36.9865 36.0418 36.5142 36.5142C36.0418 36.9866 35.592 37.2792 34.9619 37.524C34.4862 37.7089 33.7713 37.9288 32.4551 37.9889C31.0318 38.0539 30.6049 38.0676 27 38.0676C23.3951 38.0676 22.9681 38.0539 21.5448 37.9889C20.2286 37.9288 19.5138 37.7089 19.0381 37.524C18.4079 37.2792 17.9582 36.9866 17.4858 36.5142C17.0134 36.0418 16.7208 35.5921 16.476 34.962C16.2911 34.4862 16.0712 33.7714 16.0111 32.4552C15.9461 31.0316 15.9324 30.6047 15.9324 27C15.9324 23.3954 15.9461 22.9684 16.0111 21.5449C16.0712 20.2287 16.2911 19.5138 16.476 19.0381C16.7208 18.408 17.0134 17.9582 17.4858 17.4858C17.9582 17.0135 18.4079 16.7209 19.0381 16.476C19.5138 16.2911 20.2286 16.0712 21.5448 16.0111C22.9684 15.9462 23.3953 15.9325 27 15.9325ZM27 13.5C23.3336 13.5 22.8739 13.5155 21.434 13.5812C19.997 13.6468 19.0157 13.875 18.1569 14.2088C17.2692 14.5538 16.5163 15.0154 15.7658 15.7659C15.0153 16.5164 14.5537 17.2692 14.2087 18.157C13.875 19.0157 13.6468 19.997 13.5812 21.434C13.5155 22.8739 13.5 23.3336 13.5 27C13.5 30.6664 13.5155 31.1262 13.5812 32.566C13.6468 34.003 13.875 34.9843 14.2087 35.8431C14.5537 36.7308 15.0153 37.4837 15.7658 38.2342C16.5163 38.9847 17.2692 39.4463 18.1569 39.7913C19.0157 40.125 19.997 40.3532 21.434 40.4188C22.8739 40.4845 23.3336 40.5 27 40.5C30.6664 40.5 31.1261 40.4845 32.566 40.4188C34.003 40.3532 34.9843 40.125 35.843 39.7913C36.7308 39.4463 37.4836 38.9847 38.2341 38.2342C38.9846 37.4837 39.4462 36.7308 39.7912 35.8431C40.125 34.9843 40.3532 34.003 40.4188 32.566C40.4845 31.1262 40.5 30.6664 40.5 27C40.5 23.3336 40.4845 22.8739 40.4188 21.434C40.3532 19.997 40.125 19.0157 39.7912 18.157C39.4462 17.2692 38.9846 16.5164 38.2341 15.7659C37.4836 15.0154 36.7308 14.5538 35.843 14.2088C34.9843 13.875 34.003 13.6468 32.566 13.5812C31.1261 13.5155 30.6664 13.5 27 13.5ZM27 20.0676C23.1713 20.0676 20.0675 23.1714 20.0675 27C20.0675 30.8287 23.1713 33.9325 27 33.9325C30.8286 33.9325 33.9324 30.8287 33.9324 27C33.9324 23.1714 30.8286 20.0676 27 20.0676ZM27 31.5001C24.5147 31.5001 22.4999 29.4853 22.4999 27C22.4999 24.5148 24.5147 22.5 27 22.5C29.4852 22.5 31.5 24.5148 31.5 27C31.5 29.4853 29.4852 31.5001 27 31.5001ZM35.8263 19.7937C35.8263 20.6884 35.101 21.4137 34.2063 21.4137C33.3116 21.4137 32.5863 20.6884 32.5863 19.7937C32.5863 18.899 33.3116 18.1737 34.2063 18.1737C35.101 18.1737 35.8263 18.899 35.8263 19.7937Z" fill="#494949" stroke="#232323" stroke-width="0.00064"/>
</g>
<circle cx="27" cy="27" r="26.5" stroke="#232323"/>
<defs>
<clipPath id="clip0_40_107">
<rect width="27" height="27" fill="white" transform="translate(13.5 13.5)"/>
</clipPath>
</defs>
</svg>
