<svg width="45" height="45" viewBox="0 0 45 45" fill="none" xmlns="http://www.w3.org/2000/svg">
<path d="M10.6945 21.1078C10.4484 20.257 10.1461 18.7734 10.1461 18.7734H10.1109C10.1109 18.7734 9.80859 20.257 9.5625 21.1078L8.78203 23.7445H11.4609L10.6945 21.1078ZM43.3125 11.25H23.625V33.75H43.3125C44.2477 33.75 45 32.9977 45 32.0625V12.9375C45 12.0023 44.2477 11.25 43.3125 11.25ZM41.625 19.6875C41.625 20.1516 41.2453 20.5312 40.7812 20.5312H39.9797C39.4945 22.1906 38.4539 23.8641 36.9773 25.4461C37.568 25.8961 38.1797 26.325 38.8125 26.7117C39.1992 26.9508 39.3258 27.45 39.1008 27.8508L38.5453 28.8281C38.3063 29.243 37.7789 29.3766 37.3711 29.1305C36.4852 28.582 35.6484 27.9984 34.882 27.3797C34.1156 27.9914 33.2859 28.582 32.393 29.1305C31.9852 29.3766 31.4578 29.243 31.2188 28.8281L30.6633 27.8508C30.4383 27.457 30.5648 26.9508 30.9586 26.7117C31.6125 26.3109 32.2242 25.8891 32.7937 25.4461C32.2383 24.8555 31.7461 24.2508 31.3172 23.6391C31.0359 23.2383 31.1625 22.6828 31.5773 22.4367L32.0344 22.1625L32.5477 21.8602C32.9273 21.6352 33.4195 21.7406 33.6727 22.0992C34.0242 22.5914 34.432 23.0836 34.8961 23.5688C35.8453 22.5703 36.5695 21.5367 37.0055 20.5312H28.9688C28.5047 20.5312 28.125 20.1516 28.125 19.6875V18.5625C28.125 18.0984 28.5047 17.7188 28.9688 17.7188H33.4688V16.5938C33.4688 16.1297 33.8484 15.75 34.3125 15.75H35.4375C35.9016 15.75 36.2812 16.1297 36.2812 16.5938V17.7188H40.7812C41.2453 17.7188 41.625 18.0984 41.625 18.5625V19.6875ZM0 12.9375V32.0625C0 32.9977 0.752344 33.75 1.6875 33.75H21.375V11.25H1.6875C0.752344 11.25 0 12.0023 0 12.9375ZM4.14141 28.132L8.18438 16.2422C8.30391 15.8977 8.62031 15.6727 8.98594 15.6727H11.2711C11.6297 15.6727 11.9531 15.9047 12.0727 16.2422L16.1156 28.132C16.2984 28.6805 15.8977 29.25 15.3141 29.25H13.7039C13.5219 29.2499 13.3449 29.1909 13.1992 29.082C13.0535 28.973 12.9469 28.8198 12.8953 28.6453L12.2344 26.4023H8.00156L7.36172 28.6383C7.25625 28.9969 6.92578 29.25 6.55312 29.25H4.94297C4.36641 29.25 3.95859 28.6805 4.14141 28.132Z" fill="#F01919"/>
</svg>
