<svg width="54" height="54" viewBox="0 0 54 54" fill="none" xmlns="http://www.w3.org/2000/svg">
<g clip-path="url(#clip0_40_110)">
<path d="M14.3768 38.4881H17.8868C18.3711 38.4881 18.7636 38.0955 18.7636 37.6112V22.2689C18.7636 21.7846 18.3711 21.3922 17.8868 21.3922H14.3768C13.8925 21.3922 13.5 21.7846 13.5 22.2689V37.6112C13.5 38.0954 13.8925 38.4881 14.3768 38.4881Z" fill="#232323" stroke="#232323" stroke-width="0.00064"/>
<path d="M14.3768 18.6949H17.8868C18.3711 18.6949 18.7636 18.3024 18.7636 17.8181V14.7012C18.7636 14.2169 18.3711 13.8244 17.8868 13.8244H14.3768C13.8925 13.8244 13.5 14.2169 13.5 14.7012V17.8181C13.5 18.3024 13.8925 18.6949 14.3768 18.6949Z" fill="#232323" stroke="#232323" stroke-width="0.00064"/>
<path d="M39.1794 23.1716C38.6861 22.5224 37.9588 21.9885 36.9972 21.57C36.0355 21.1518 34.974 20.9425 33.8126 20.9425C31.455 20.9425 29.4572 21.8423 27.8194 23.6422C27.4935 24.0003 27.2566 23.922 27.2566 23.4377V22.2689C27.2566 21.7846 26.864 21.3921 26.3798 21.3921H23.2443C22.76 21.3921 22.3676 21.7846 22.3676 22.2689V37.6112C22.3676 38.0955 22.7601 38.488 23.2443 38.488H26.7544C27.2387 38.488 27.6311 38.0955 27.6311 37.6112V32.2756C27.6311 30.0527 27.7654 28.5291 28.0338 27.7049C28.3022 26.8808 28.7987 26.219 29.523 25.7194C30.2474 25.2199 31.0652 24.97 31.977 24.97C32.6887 24.97 33.2976 25.1449 33.8034 25.4947C34.3092 25.8444 34.6745 26.3343 34.8993 26.9651C35.1242 27.5958 35.2365 28.985 35.2365 31.133V37.6112C35.2365 38.0954 35.629 38.488 36.1132 38.488H39.6233C40.1075 38.488 40.5 38.0954 40.5 37.6112V28.9225C40.5 27.3866 40.4032 26.2064 40.2098 25.3823C40.0164 24.5581 39.6729 23.8212 39.1794 23.1716Z" fill="#232323" stroke="#232323" stroke-width="0.00064"/>
</g>
<circle cx="27" cy="27" r="26.5" stroke="#232323"/>
<defs>
<clipPath id="clip0_40_110">
<rect width="27" height="27" fill="white" transform="translate(13.5 12.6562)"/>
</clipPath>
</defs>
</svg>
