<svg width="41" height="41" viewBox="0 0 41 41" fill="none" xmlns="http://www.w3.org/2000/svg">
<path d="M20.5 22.2083V35.875M20.5 22.2083C21.4435 22.2083 22.2083 21.4435 22.2083 20.5C22.2083 19.5565 21.4435 18.7917 20.5 18.7917C19.5565 18.7917 18.7917 19.5565 18.7917 20.5C18.7917 21.4435 19.5565 22.2083 20.5 22.2083ZM26.5398 26.5398C29.8757 23.2041 29.8757 17.7959 26.5398 14.4601C23.2041 11.1244 17.7959 11.1244 14.4601 14.4601C11.1244 17.7959 11.1244 23.2041 14.4601 26.5398M31.3718 31.3718C37.3761 25.3674 37.3761 15.6325 31.3718 9.62824C25.3674 3.62392 15.6325 3.62392 9.62824 9.62824C3.62392 15.6325 3.62392 25.3674 9.62824 31.3718" stroke="#F01919" stroke-width="1.408" stroke-linecap="round" stroke-linejoin="round"/>
</svg>
