<svg width="54" height="54" viewBox="0 0 54 54" fill="none" xmlns="http://www.w3.org/2000/svg">
<path d="M39.1121 22.5C39.1121 22.763 39.1121 23.0414 39.1121 23.3044C39.1265 25.6405 38.6769 27.9561 37.7896 30.1171C36.9022 32.2781 35.5948 34.2414 33.9429 35.8933C32.291 37.5452 30.3277 38.8526 28.1667 39.7401C26.0057 40.6274 23.69 41.0769 21.3539 41.0625C17.9541 41.0724 14.6238 40.1002 11.7633 38.2627C12.2738 38.2627 12.7533 38.2627 13.3102 38.2627C16.1154 38.2627 18.8392 37.3203 21.0446 35.5866C19.7374 35.5748 18.4674 35.1494 17.417 34.3713C16.3665 33.5933 15.5895 32.5024 15.1974 31.2553C15.5913 31.3181 15.9896 31.3492 16.3885 31.3481C16.9409 31.3441 17.4911 31.2767 18.0281 31.147C16.6306 30.8618 15.3745 30.1024 14.4724 28.9973C13.5704 27.8924 13.0779 26.5096 13.0781 25.0833C13.943 25.5603 14.9067 25.8304 15.8935 25.8722C15.0228 25.2962 14.3094 24.5123 13.8178 23.5913C13.3263 22.6703 13.072 21.6413 13.0781 20.5973C13.0801 19.5106 13.3682 18.4436 13.9135 17.5036C15.4785 19.4336 17.4314 21.0133 19.6458 22.1404C21.8602 23.2676 24.2867 23.9171 26.768 24.0469C26.6698 23.5787 26.618 23.1021 26.6133 22.6238C26.5729 21.3505 26.9267 20.0958 27.6261 19.0311C28.3256 17.9663 29.3364 17.1434 30.521 16.6746C31.7055 16.2059 33.0059 16.1142 34.2445 16.4121C35.4831 16.7099 36.5995 17.3828 37.4414 18.3389C38.8414 18.0577 40.1816 17.5342 41.4014 16.792C40.9355 18.2355 39.9557 19.4576 38.648 20.2261C39.8912 20.0918 41.1066 19.7683 42.2522 19.267C41.4039 20.506 40.359 21.5981 39.1585 22.5H39.1121Z" fill="#232323" stroke="#232323" stroke-width="0.192"/>
<circle cx="27" cy="27" r="26.5" stroke="#232323"/>
</svg>
