<svg width="54" height="54" viewBox="0 0 54 54" fill="none" xmlns="http://www.w3.org/2000/svg">
<path d="M41.5611 19.6721C41.3923 19.0214 41.0538 18.4273 40.5801 17.9503C40.1065 17.4733 39.5147 17.1307 38.8653 16.9573C34.9279 16.4929 30.9645 16.2836 27 16.3308C23.0356 16.2836 19.0722 16.4929 15.1348 16.9573C14.4854 17.1307 13.8936 17.4733 13.42 17.9503C12.9464 18.4273 12.6079 19.0214 12.439 19.6721C12.0077 22.0905 11.798 24.5434 11.8125 27C11.7973 29.4693 12.007 31.9348 12.439 34.3659C12.6166 35.0061 12.959 35.5883 13.4321 36.0548C13.9051 36.5212 14.4922 36.8553 15.1348 37.0237C19.0722 37.4881 23.0356 37.6975 27 37.6502C30.9645 37.6975 34.9279 37.4881 38.8653 37.0237C39.5079 36.8553 40.0951 36.5212 40.568 36.0548C41.0411 35.5883 41.3836 35.0061 41.5611 34.3659C41.9931 31.9348 42.2027 29.4693 42.1875 27C42.2022 24.5434 41.9924 22.0905 41.5611 19.6721ZM23.8866 31.5372V22.5007L31.8411 27L23.8866 31.5183V31.5372Z" fill="#232323" stroke="#232323" stroke-width="0.64"/>
<circle cx="27" cy="27" r="26.5" stroke="#232323"/>
</svg>
